<svg xmlns="http://www.w3.org/2000/svg" width="95.186" height="77.205" viewBox="0 0 95.186 77.205">
  <g id="Grupo_28" data-name="Grupo 28" transform="translate(-138.79 -5612.258)">
    <path id="Trazado_115" data-name="Trazado 115" d="M204.394,5638.387a1.65,1.65,0,0,0-1.01.452c-1.174.875-3.623,1.318-7.279,1.318H166.641c-4.768,0-6.63-.587-7.353-1.079a.387.387,0,0,0-.038-.025,2,2,0,0,0-.529-.229.73.73,0,0,0-.181-.023c-.981,0-1.282,1.208-1.381,1.6l-1.278,5.412a2.212,2.212,0,0,0-.063.6c0,.926.574,1.254,1.065,1.254.325,0,.712-.155,1.726-.945a6.9,6.9,0,0,1,2.7-1.41,30.708,30.708,0,0,1,5.865-.4h10.653V5655.7c-.129,2.573-.584,3.307-.774,3.5-1.46,1.524-4.744,2.3-9.764,2.3-7.191,0-12.641-1.933-16.2-5.746s-5.382-9.692-5.382-17.434c0-7.3,1.713-12.837,5.09-16.446s8.519-5.418,15.323-5.418c5.468,0,9.25.589,11.238,1.749.823.473,1.442,1.6,1.845,3.341.437,1.874,1.27,2.823,2.478,2.823h.15a1.775,1.775,0,0,0,1.931-1.931,7.013,7.013,0,0,0-.167-1.43c-.242-1.215-.505-3.507-.778-6.806a.725.725,0,0,0-.665-.663c-1.242-.1-2.242-.2-2.975-.3a116.649,116.649,0,0,0-12.869-.986c-12.128,0-20.36,4.36-24.467,12.96a32.106,32.106,0,0,0-3.047,13.913,31.467,31.467,0,0,0,2.9,13.8,21.307,21.307,0,0,0,12.193,10.875,42.133,42.133,0,0,0,14.533,2.156,28.562,28.562,0,0,0,3.291-.118c2.536-.248,4.588-.421,6.117-.514v10.792c0,5.178-.294,6.645-.47,7.058-.289.674-1.331,1.6-4.654,2.166-1.769.281-2.034,1.371-2.034,2,0,1.326.693,2.118,1.855,2.118a17.224,17.224,0,0,0,3.675-.608,24.374,24.374,0,0,1,4.765-.823,23.663,23.663,0,0,1,4.8.809,18.407,18.407,0,0,0,3.749.622,1.646,1.646,0,0,0,1.742-1.806v-.448a1.7,1.7,0,0,0-.991-1.753,6.509,6.509,0,0,0-1.645-.37c-2.933-.533-3.707-1.262-3.906-1.65-.281-.547-.616-2.011-.616-5.88v-24.214c0-.14,0-.281,0-.418v-8h10.088c3.751,0,6.27.514,7.486,1.528.59.471.874.62,1.18.62.282,0,1.194-.114,1.286-1.558l1.3-5.13a3.856,3.856,0,0,0,.136-.932,1.062,1.062,0,0,0-1.177-1.064" fill="#fff"/>
    <g id="Grupo_24" data-name="Grupo 24">
      <path id="Trazado_116" data-name="Trazado 116" d="M198.325,5666.265l.022-4.91s.132-2.182-.53-2.909a5.1,5.1,0,0,0-1.9-1.434,2.749,2.749,0,0,0-.6-.1c-.287,0-.75-.021-1.391,0a2.23,2.23,0,0,0-.749.141,3.3,3.3,0,0,0-2.317,3.051l.021,8a2.325,2.325,0,0,0,.464,1.576c2.272,2.828,6.332,1.7,6.929-1.131A9.912,9.912,0,0,0,198.325,5666.265Zm-2.582.121v1.111a1.269,1.269,0,0,1-1.28,1.293,1.185,1.185,0,0,1-1.081-1.111,4.5,4.5,0,0,1-.044-.788c-.022-1.576-.022-3.515,0-5.859a1.708,1.708,0,0,1,.4-1.414,1.085,1.085,0,0,1,.794-.344,1.285,1.285,0,0,1,1.214,1.293Z" fill="#fff"/>
    </g>
    <g id="Grupo_25" data-name="Grupo 25">
      <path id="Trazado_117" data-name="Trazado 117" d="M206.2,5665.915c-.085-.2-.245-.212-.356-.019l-.341.59a1.767,1.767,0,0,0-.2.744v3.539a.416.416,0,0,1-.432.4h-1.546a.416.416,0,0,1-.432-.4v-13.305a.416.416,0,0,1,.432-.4h1.546a.416.416,0,0,1,.432.4v5.352c0,.217.083.234.184.037l2.787-5.426a.752.752,0,0,1,.615-.358h1.547c.237,0,.346.16.242.355L207.7,5663a.954.954,0,0,0-.032.723l3.037,7.078c.086.2-.037.368-.274.368H208.82a.679.679,0,0,1-.585-.37Z" fill="#fff"/>
      <path id="Trazado_118" data-name="Trazado 118" d="M206.2,5665.915c-.085-.2-.245-.212-.356-.019l-.341.59a1.767,1.767,0,0,0-.2.744v3.539a.416.416,0,0,1-.432.4h-1.546a.416.416,0,0,1-.432-.4v-13.305a.416.416,0,0,1,.432-.4h1.546a.416.416,0,0,1,.432.4v5.352c0,.217.083.234.184.037l2.787-5.426a.752.752,0,0,1,.615-.358h1.547c.237,0,.346.16.242.355L207.7,5663a.954.954,0,0,0-.032.723l3.037,7.078c.086.2-.037.368-.274.368H208.82a.679.679,0,0,1-.585-.37Z" fill="#fff"/>
    </g>
    <g id="Grupo_26" data-name="Grupo 26">
      <path id="Trazado_119" data-name="Trazado 119" d="M217.535,5662.614a.415.415,0,0,0,.431.4h2.445a.416.416,0,0,1,.432.4v1.224a.416.416,0,0,1-.432.4h-2.445a.416.416,0,0,0-.431.4v3.338a.415.415,0,0,0,.431.4h3.3a.415.415,0,0,1,.431.4v1.223a.416.416,0,0,1-.431.4h-5.709a.416.416,0,0,1-.432-.4v-13.305a.416.416,0,0,1,.432-.4h5.709a.416.416,0,0,1,.431.4v1.223a.416.416,0,0,1-.431.4h-3.3a.415.415,0,0,0-.431.4Z" fill="#fff"/>
      <path id="Trazado_120" data-name="Trazado 120" d="M217.535,5662.614a.415.415,0,0,0,.431.4h2.445a.416.416,0,0,1,.432.4v1.224a.416.416,0,0,1-.432.4h-2.445a.416.416,0,0,0-.431.4v3.338a.415.415,0,0,0,.431.4h3.3a.415.415,0,0,1,.431.4v1.223a.416.416,0,0,1-.431.4h-5.709a.416.416,0,0,1-.432-.4v-13.305a.416.416,0,0,1,.432-.4h5.709a.416.416,0,0,1,.431.4v1.223a.416.416,0,0,1-.431.4h-3.3a.415.415,0,0,0-.431.4Z" fill="#fff"/>
    </g>
    <g id="Grupo_27" data-name="Grupo 27">
      <path id="Trazado_121" data-name="Trazado 121" d="M228.611,5661.337c-.061-.21-.112-.2-.112.014v9.418a.416.416,0,0,1-.431.4h-1.306a.417.417,0,0,1-.432-.4v-13.305a.417.417,0,0,1,.432-.4h2.16a.591.591,0,0,1,.544.382l2.251,7.674c.062.21.112.2.112-.014v-7.647a.417.417,0,0,1,.432-.4h1.284a.416.416,0,0,1,.431.4v13.305a.416.416,0,0,1-.431.4h-1.613a.589.589,0,0,1-.543-.382Z" fill="#fff"/>
      <path id="Trazado_122" data-name="Trazado 122" d="M228.611,5661.337c-.061-.21-.112-.2-.112.014v9.418a.416.416,0,0,1-.431.4h-1.306a.417.417,0,0,1-.432-.4v-13.305a.417.417,0,0,1,.432-.4h2.16a.591.591,0,0,1,.544.382l2.251,7.674c.062.21.112.2.112-.014v-7.647a.417.417,0,0,1,.432-.4h1.284a.416.416,0,0,1,.431.4v13.305a.416.416,0,0,1-.431.4h-1.613a.589.589,0,0,1-.543-.382Z" fill="#fff"/>
    </g>
  </g>
</svg>
